HIERARCHY
ROOT Hips
{
 OFFSET 0.000000 0.000000 0.000000
 CHANNELS 6 Xposition Yposition Zposition Yrotation Xrotation Zrotation
 JOINT Chest
 {
  OFFSET 0.000000 13.173100 -0.061900
  CHANNELS 3 Yrotation Xrotation Zrotation
  JOINT Chest2
  {
   OFFSET 0.000000 8.040800 0.126200
   CHANNELS 3 Yrotation Xrotation Zrotation
   JOINT Chest3
   {
    OFFSET 0.000000 7.994400 0.000000
    CHANNELS 3 Yrotation Xrotation Zrotation
    JOINT Chest4
    {
     OFFSET 0.000000 7.986200 0.000000
     CHANNELS 3 Yrotation Xrotation Zrotation
     JOINT Neck
     {
      OFFSET 0.000000 12.259400 0.000000
      CHANNELS 3 Yrotation Xrotation Zrotation
      JOINT Head
      {
       OFFSET 0.000000 7.518700 0.267100
       CHANNELS 3 Yrotation Xrotation Zrotation
       End Site
       {
        OFFSET 0.000000 13.617700 0.141000
       }
      }
     }
     JOINT RightCollar
     {
      OFFSET -2.983800 8.314300 0.000000
      CHANNELS 3 Yrotation Xrotation Zrotation
      JOINT RightShoulder
      {
       OFFSET -16.133400 0.000000 0.000000
       CHANNELS 3 Yrotation Xrotation Zrotation
       JOINT RightElbow
       {
        OFFSET 0.000000 -29.822100 0.000000
        CHANNELS 3 Yrotation Xrotation Zrotation
        JOINT RightWrist
        {
         OFFSET 0.000000 -24.437700 0.010900
         CHANNELS 3 Yrotation Xrotation Zrotation
         End Site
         {
          OFFSET 0.000000 -18.312300 0.000000
         }
        }
       }
      }
     }
     JOINT LeftCollar
     {
      OFFSET 2.983800 8.314300 0.000000
      CHANNELS 3 Yrotation Xrotation Zrotation
      JOINT LeftShoulder
      {
       OFFSET 16.133400 0.000000 0.000000
       CHANNELS 3 Yrotation Xrotation Zrotation
       JOINT LeftElbow
       {
        OFFSET 0.000000 -29.822100 0.000000
        CHANNELS 3 Yrotation Xrotation Zrotation
        JOINT LeftWrist
        {
         OFFSET 0.000000 -24.437700 0.010900
         CHANNELS 3 Yrotation Xrotation Zrotation
         End Site
         {
          OFFSET 0.000000 -18.312300 0.000000
         }
        }
       }
      }
     }
    }
   }
  }
 }
 JOINT RightHip
 {
  OFFSET -11.206700 0.306200 0.030900
  CHANNELS 3 Yrotation Xrotation Zrotation
  JOINT RightKnee
  {
   OFFSET 0.000000 -57.334900 0.009400
   CHANNELS 3 Yrotation Xrotation Zrotation
   JOINT RightAnkle
   {
    OFFSET 0.000000 -43.376200 0.036600
    CHANNELS 3 Yrotation Xrotation Zrotation
    JOINT RightToe
    {
     OFFSET 0.000000 -10.035500 18.363100
     CHANNELS 3 Yrotation Xrotation Zrotation
     End Site
     {
      OFFSET 0.000000 -1.618500 7.239000
     }
    }
   }
  }
 }
 JOINT LeftHip
 {
  OFFSET 11.206700 0.306200 0.030900
  CHANNELS 3 Yrotation Xrotation Zrotation
  JOINT LeftKnee
  {
   OFFSET 0.000000 -57.334900 0.009400
   CHANNELS 3 Yrotation Xrotation Zrotation
   JOINT LeftAnkle
   {
    OFFSET 0.000000 -43.376200 0.036600
    CHANNELS 3 Yrotation Xrotation Zrotation
    JOINT LeftToe
    {
     OFFSET 0.000000 -10.035500 18.363100
     CHANNELS 3 Yrotation Xrotation Zrotation
     End Site
     {
      OFFSET 0.000000 -1.618500 7.239000
     }
    }
   }
  }
 }
}
MOTION
Frames: 5
Frame Time: 0.008333
0.000000 110.232800 0.000000 0.000000 -5.767877 0.000000 0.000000 11.653817 0.000000 0.000000 -5.885947 0.000000 0.000000 -0.000000 0.000000 0.000000 -0.000000 0.000000 0.000000 12.528835 0.000000 0.000000 0.711642 0.000000 0.000000 -0.000000 0.000000 0.000000 0.000000 -90.000000 0.000000 -2.309062 0.000000 0.000000 2.309062 0.000000 0.000000 -0.000000 0.000000 0.000000 -0.000000 90.000000 0.000000 -2.309062 0.000000 0.000000 2.309062 0.000000 0.000000 8.520406 0.000000 0.000000 1.905762 0.000000 -0.000000 -4.658285 0.000000 0.000000 -0.000000 0.000000 0.000000 8.520406 0.000000 0.000000 1.905762 0.000000 -0.000000 -4.658285 0.000000 0.000000 -0.000000 0.000000
-94.057543 64.411909 89.924008 173.179031 -35.228125 -2.563286 3.135248 24.082531 2.547604 0.420496 3.744364 0.483706 0.691074 6.006031 0.790770 2.738450 20.095770 3.040060 1.959660 16.572178 -0.388044 3.768011 -4.983472 -1.402617 -1.434342 -1.831993 -3.267118 4.806794 -26.470449 -3.925088 -167.930666 -49.575178 -174.912803 -4.150301 -11.321909 0.992202 -6.940635 -2.311020 -0.423510 -0.986680 -26.869987 4.581632 -175.741596 -45.167079 164.432392 -3.514241 -29.426435 29.044796 -4.523225 -45.887232 4.526714 -109.665884 86.592550 -104.853152 -0.328851 -8.934936 -4.080730 0.437238 -0.711250 0.240823 -1.998231 -42.394257 4.165239 74.524323 83.795243 64.374860 -5.389851 -14.001074 8.818290 0.304052 1.076064 0.179022
-94.048049 64.412065 89.909115 173.143949 -35.258709 -2.567387 3.198197 24.208187 2.594262 0.426647 3.776769 0.488517 0.700905 6.054913 0.798377 2.763466 20.161439 3.056898 1.957809 16.585234 -0.390759 3.765307 -4.959201 -1.406599 -1.426785 -1.795686 -3.260083 4.945080 -26.603739 -3.984812 -167.971101 -49.421300 -174.889084 -4.141731 -11.386139 0.823998 -7.011490 -2.271530 -0.397788 -1.049757 -26.917129 4.589170 -175.742549 -45.135836 164.500340 -3.524030 -29.430039 29.019745 -4.485465 -45.862659 4.569706 -109.799733 86.575374 -104.988404 -0.354611 -8.930778 -4.066155 0.447758 -0.725226 0.248118 -1.984737 -42.364568 4.194910 74.706124 83.817484 64.560641 -5.372550 -13.998041 8.828755 0.283511 1.050283 0.164378
-94.030154 64.414182 89.889643 173.061866 -35.307872 -2.578759 3.312232 24.347996 2.678371 0.424630 3.744712 0.485675 0.717291 6.165890 0.814481 2.784660 20.224969 3.074544 1.955168 16.601553 -0.394817 3.761464 -4.928802 -1.412691 -1.417223 -1.756037 -3.249074 5.104790 -26.735906 -4.047657 -168.090232 -49.299001 -174.816073 -4.119568 -11.480150 0.696281 -7.078086 -2.227260 -0.376286 -1.113966 -26.952712 4.595317 -175.697950 -45.121916 164.539455 -3.538783 -29.425160 28.981104 -4.446584 -45.817781 4.660923 -109.986504 86.567298 -105.182245 -0.351116 -8.928445 -4.031733 0.417879 -0.735289 0.234026 -1.962401 -42.319246 4.268265 74.970202 83.833976 64.824867 -5.322463 -13.964157 8.865229 0.241577 0.988602 0.120351
-94.021419 64.412707 89.870527 173.032795 -35.333440 -2.584072 3.362631 24.464678 2.719981 0.423214 3.715602 0.482821 0.731668 6.271257 0.830963 2.803058 20.286133 3.092801 1.951804 16.622788 -0.399409 3.756230 -4.889304 -1.419276 -1.410494 -1.709911 -3.230847 5.275208 -26.872468 -4.110382 -168.266965 -49.220295 -174.706374 -4.061012 -11.551174 0.633952 -7.142223 -2.175197 -0.357399 -1.174050 -26.976554 4.601039 -175.622249 -45.125910 164.560721 -3.559227 -29.410617 28.918716 -4.416329 -45.795072 4.707509 -110.306397 86.576719 -105.528460 -0.379993 -8.939361 -3.980996 0.394119 -0.737797 0.224096 -1.936762 -42.293325 4.282177 75.192275 83.838842 65.056229 -5.315337 -13.948593 8.897069 0.236412 0.957842 0.093632
